<svg width="32" height="32" viewBox="0 0 32 32" fill="none" xmlns="http://www.w3.org/2000/svg">
  <rect width="32" height="32" rx="8" fill="#1a1a1a"/>
  <rect x="1" y="1" width="30" height="30" rx="7" fill="none" stroke="#81784E" stroke-width="1" stroke-opacity="0.3"/>
  
  <!-- Brain Circuit Icon -->
  <g transform="translate(8, 8)">
    <!-- Main brain shape -->
    <path d="M8 2C10.5 2 12.5 4 12.5 6.5C12.5 7.5 12.2 8.4 11.7 9.1C12.3 9.8 12.5 10.7 12.5 11.5C12.5 13.5 11 15 9 15H7C4.5 15 2.5 13 2.5 10.5C2.5 9.5 2.8 8.6 3.3 7.9C2.7 7.2 2.5 6.3 2.5 5.5C2.5 3.5 4 2 6 2H8Z" 
          fill="none" 
          stroke="#81784E" 
          stroke-width="1.5" 
          stroke-linecap="round" 
          stroke-linejoin="round"/>
    
    <!-- Circuit connections -->
    <circle cx="5" cy="5" r="1" fill="#81784E"/>
    <circle cx="10" cy="7" r="1" fill="#81784E"/>
    <circle cx="6" cy="10" r="1" fill="#81784E"/>
    <circle cx="9" cy="12" r="1" fill="#81784E"/>
    
    <!-- Connection lines -->
    <line x1="5" y1="5" x2="6" y2="10" stroke="#81784E" stroke-width="1" stroke-opacity="0.6"/>
    <line x1="10" y1="7" x2="9" y2="12" stroke="#81784E" stroke-width="1" stroke-opacity="0.6"/>
    <line x1="6" y1="10" x2="9" y2="12" stroke="#81784E" stroke-width="1" stroke-opacity="0.6"/>
  </g>
</svg>