<svg width="32" height="32" viewBox="0 0 32 32" fill="none" xmlns="http://www.w3.org/2000/svg">
  <rect width="32" height="32" rx="8" fill="#0F0F0F"/>
  <rect x="1" y="1" width="30" height="30" rx="7" fill="url(#gradient)" stroke="rgba(245, 158, 11, 0.3)" stroke-width="1"/>
  
  <!-- BrainCircuit Icon -->
  <g transform="translate(6, 6)">
    <path d="M12 5a3 3 0 1 0-5.997.125 4 4 0 0 0-2.526 5.77 4 4 0 0 0 .556 6.588A4 4 0 1 0 12 18Z" 
          stroke="#F59E0B" stroke-width="1.5" fill="none" stroke-linecap="round" stroke-linejoin="round"/>
    <path d="M12 5a3 3 0 1 0-5.997.125 4 4 0 0 0-2.526 5.77 4 4 0 0 0 .556 6.588A4 4 0 1 0 12 18Z" 
          stroke="rgba(245, 158, 11, 0.3)" stroke-width="3" fill="none" stroke-linecap="round" stroke-linejoin="round"/>
    <path d="M9.5 8h.01" stroke="#F59E0B" stroke-width="1.5" stroke-linecap="round" stroke-linejoin="round"/>
    <path d="M6.5 11h.01" stroke="#F59E0B" stroke-width="1.5" stroke-linecap="round" stroke-linejoin="round"/>
    <path d="M8.5 14h.01" stroke="#F59E0B" stroke-width="1.5" stroke-linecap="round" stroke-linejoin="round"/>
    <path d="M11.5 11h.01" stroke="#F59E0B" stroke-width="1.5" stroke-linecap="round" stroke-linejoin="round"/>
    <path d="M9 8v1" stroke="#F59E0B" stroke-width="1.2" stroke-linecap="round"/>
    <path d="M7 11v1" stroke="#F59E0B" stroke-width="1.2" stroke-linecap="round"/>
    <path d="M11 11v1" stroke="#F59E0B" stroke-width="1.2" stroke-linecap="round"/>
  </g>
  
  <defs>
    <linearGradient id="gradient" x1="0%" y1="0%" x2="100%" y2="100%">
      <stop offset="0%" style="stop-color:rgba(245, 158, 11, 0.1);stop-opacity:1" />
      <stop offset="100%" style="stop-color:rgba(234, 179, 8, 0.1);stop-opacity:1" />
    </linearGradient>
  </defs>
</svg>